<?xml version="1.0" encoding="utf-8"?>
<!-- Generator: Adobe Illustrator 23.1.0, SVG Export Plug-In . SVG Version: 6.00 Build 0)  -->
<svg version="1.1" id="Layer_1" xmlns="http://www.w3.org/2000/svg" xmlns:xlink="http://www.w3.org/1999/xlink" x="0px" y="0px"
	 viewBox="0 0 693 130" style="enable-background:new 0 0 693 130;" xml:space="preserve">
<style type="text/css">
	.st0{fill:#90303D;}
	.st1{fill:#FFFFFF;}
</style>
<g>
	<g>
		<path id="XMLID_6_" class="st0" d="M139.7,24.8c0,4.8-3.6,8.4-9,8.4c-5.1,0-8.7-3.9-8.7-8.4c0-4.8,3.6-8.7,8.7-8.7
			C136.1,16.4,139.4,20,139.7,24.8z M122.8,104.9V42.3h15.9v62.6H122.8z"/>
		<polygon id="XMLID_7_" class="st0" points="204.6,66.4 171.9,66.4 171.9,91.9 208.6,91.9 208.6,104.9 156.2,104.9 156.2,18.2 
			206.5,18.2 206.5,31.5 171.9,31.5 171.9,53.7 204.6,53.7 		"/>
		<path id="XMLID_8_" class="st0" d="M238.9,26.3v15.9h15V54h-15v27.7c0,7.5,2.1,11.4,8.1,11.4c3,0,4.2-0.3,6-0.9l0.3,12
			c-2.4,0.9-6.3,1.8-11.4,1.8c-5.7,0-10.5-2.1-13.5-5.1c-3.3-3.6-4.8-9.3-4.8-17.4V54h-9V42.3h9V30.9L238.9,26.3z"/>
		<path id="XMLID_9_" class="st0" d="M266,13.7H282V51h0.3c1.8-3,4.5-5.4,7.8-7.2c3-1.8,6.9-2.7,10.8-2.7c10.5,0,21.7,6.9,21.7,27.1
			v36.7h-15.6V69.7c0-9-3.3-15.9-12-15.9c-6,0-10.5,4.2-12.3,8.7c-0.6,1.2-0.6,3-0.6,4.8v37.3H266V13.7L266,13.7z"/>
		<path id="XMLID_12_" class="st0" d="M350.6,78.1c0.3,11.4,9.3,16.2,19.3,16.2c7.2,0,12.6-0.9,17.4-2.7l2.4,10.8
			c-5.4,2.1-12.9,3.9-21.7,3.9c-20.2,0-32.2-12.6-32.2-31.6c0-17.4,10.5-33.7,30.4-33.7c20.5,0,27.1,16.5,27.1,30.4
			c0,3-0.3,5.1-0.6,6.6C392.7,78.1,350.6,78.1,350.6,78.1z M377.9,67c0-5.7-2.4-15.3-12.9-15.3c-9.6,0-13.8,8.7-14.4,15.3H377.9z"/>
		<path id="XMLID_13_" class="st0" d="M405.6,62.4c0-8.4,0-14.4-0.6-20.2h13.5l0.6,12h0.6c3-8.7,10.5-13.2,17.1-13.2
			c1.5,0,2.4,0,3.9,0.3v14.7c-1.2-0.3-2.7-0.6-4.5-0.6c-7.5,0-12.6,4.8-14.1,12c-0.3,1.5-0.6,3-0.6,4.8v32.2h-15.6L405.6,62.4
			L405.6,62.4z"/>
		<path id="XMLID_16_" class="st0" d="M461.3,78.1c0.3,11.4,9.3,16.2,19.3,16.2c7.2,0,12.6-0.9,17.4-2.7l2.4,10.8
			c-5.4,2.1-12.9,3.9-21.7,3.9c-20.2,0-32.2-12.6-32.2-31.6c0-17.4,10.5-33.7,30.4-33.7c20.5,0,27.1,16.5,27.1,30.4
			c0,3-0.3,5.1-0.6,6.6C503.4,78.1,461.3,78.1,461.3,78.1z M488.7,67c0-5.7-2.4-15.3-12.9-15.3c-9.6,0-13.8,8.7-14.4,15.3H488.7z"/>
		<path id="XMLID_17_" class="st0" d="M572.3,86.2c0,7.5,0.3,13.5,0.6,18.7h-14.1l-0.9-9.6h-0.3c-2.7,4.5-8.7,10.8-20.2,10.8
			s-21.7-6.9-21.7-27.1V42.3h15.6v34c0,10.5,3.3,17.1,11.7,17.1c6.3,0,10.5-4.5,12-8.4c0.6-1.5,0.9-3,0.9-4.8V42.6h15.6L572.3,86.2
			L572.3,86.2z"/>
		<path id="XMLID_18_" class="st0" d="M589.1,60.9c0-7.2,0-13.2-0.6-18.7h13.5l0.6,9.3h0.3c3-4.8,8.7-10.5,19.3-10.5
			c8.1,0,14.7,4.5,17.4,11.4h0.3c2.1-3.6,4.8-6,7.8-7.8c3.6-2.4,7.5-3.9,12.6-3.9c10.5,0,21.1,6.9,21.1,27.1v36.7h-15.3V70.3
			c0-10.5-3.6-16.5-11.1-16.5c-5.4,0-9.3,3.9-11.1,8.4c-0.3,1.5-0.9,3.6-0.9,5.1v37.6h-15.3V68.8c0-8.7-3.6-14.7-10.8-14.7
			c-6,0-9.9,4.5-11.4,9c-0.6,1.5-0.9,3.3-0.9,5.1v37h-15.3L589.1,60.9L589.1,60.9z"/>
	</g>
	<g>
		<path id="XMLID_21_" d="M103.9,17C66.6,17,60.5,2.9,60.2,2.9c-0.3-0.6-0.9-1.2-1.8-1.2l0,0c-0.6,0-1.5,0.6-1.8,1.2
			c0,0-6.6,14.1-43.3,14.1c-0.9,0-1.8,0.9-1.8,1.8V82c0,25.9,44.5,45.7,46.3,46.3c0.3,0,0.6,0,0.6,0c0.3,0,0.6,0,0.6,0
			c1.8-0.9,46.3-20.8,46.3-46.3V18.8C105.7,17.6,105.1,17,103.9,17z M95.7,78.1c0,20.2-34.6,35.8-36.4,36.4c-0.3,0-0.3,0-0.6,0
			s-0.3,0-0.6,0c-1.5-0.6-36.4-16.2-36.4-36.4V28.7c0-0.9,0.6-1.5,1.5-1.5c29.2,0,34-11.1,34-11.1c0.3-0.3,0.9-0.9,1.5-0.9l0,0
			c0.6,0,1.2,0.3,1.2,0.9c0,0,4.8,11.1,34,11.1c0.9,0,1.5,0.6,1.5,1.5L95.7,78.1z"/>
		<path id="XMLID_1_" class="st1" d="M95.7,78.1c0,20.2-34.6,35.8-36.4,36.4c-0.3,0-0.3,0-0.6,0s-0.3,0-0.6,0
			c-1.5-0.6-36.4-16.2-36.4-36.4V28.7c0-0.9,0.6-1.5,1.5-1.5c29.2,0,34-11.1,34-11.1c0.3-0.3,0.9-0.9,1.5-0.9l0,0
			c0.6,0,1.2,0.3,1.2,0.9c0,0,4.8,11.1,34,11.1c0.9,0,1.5,0.6,1.5,1.5L95.7,78.1z"/>
		<polygon id="XMLID_22_" class="st0" points="83.7,74.8 58.7,83.8 33.8,74.8 58.7,32.1 		"/>
		<polygon id="XMLID_23_" class="st0" points="82.5,79.9 58.7,107.6 35,79.9 58.7,88.6 		"/>
		<polygon id="XMLID_24_" points="58.7,88.6 82.5,79.9 58.7,107.6 		"/>
		<polygon id="XMLID_25_" points="83.7,74.8 58.7,83.8 58.7,32.1 		"/>
		<path id="XMLID_46_" class="st0" d="M37.1,37.8c0,1.8-1.5,3.3-3.6,3.3s-3.3-1.5-3.3-3.6c0-1.8,1.5-3.3,3.6-3.3
			C35.9,34.5,37.1,35.7,37.1,37.8z"/>
		<path id="XMLID_47_" class="st0" d="M87,37.8c0,1.8-1.5,3.3-3.6,3.3c-2.1,0-3.3-1.5-3.3-3.6c0-1.8,1.5-3.3,3.6-3.3
			C85.8,34.5,87,35.7,87,37.8z"/>
	</g>
</g>
</svg>
