<?xml version="1.0" encoding="utf-8"?>
<!-- Generator: Adobe Illustrator 19.0.0, SVG Export Plug-In . SVG Version: 6.00 Build 0)  -->
<svg version="1.1" id="Layer_1" xmlns="http://www.w3.org/2000/svg" xmlns:xlink="http://www.w3.org/1999/xlink" x="0px" y="0px"
	 viewBox="0 0 693 130" style="enable-background:new 0 0 693 130;" xml:space="preserve">
<style type="text/css">
	.st0{fill:#C52826;}
	.st1{fill:#333333;}
	.st2{fill:#F05023;}
</style>
<g id="XMLID_2_">
	<path id="XMLID_6_" class="st0" d="M136.4,29.6c0,4.8-3.5,8.5-9.1,8.5c-5.3,0-8.8-3.8-8.8-8.5c0-4.9,3.6-8.7,8.9-8.7
		C132.9,20.9,136.3,24.7,136.4,29.6z M119.5,110.2v-63h16v63H119.5z"/>
	<polygon id="XMLID_7_" class="st0" points="202,71.5 169.1,71.5 169.1,97.2 205.9,97.2 205.9,110.2 153.2,110.2 153.2,23 204,23 
		204,36.1 169.1,36.1 169.1,58.6 202,58.6 	"/>
	<path id="XMLID_8_" class="st0" d="M236.8,31v16.2H252v11.9h-15.1v27.8c0,7.6,2.1,11.6,8.2,11.6c3,0,4.4-0.3,6.2-0.8l0.3,12.2
		c-2.3,0.9-6.5,1.7-11.5,1.7c-5.8,0-10.7-2.1-13.7-5.3c-3.4-3.6-4.9-9.3-4.9-17.6V59.1h-9.1V47.2h9.1V35.6L236.8,31z"/>
	<path id="XMLID_9_" class="st0" d="M264,18.4h16v37.5h0.3c1.9-3,4.7-5.6,7.9-7.2c3.1-1.8,6.9-2.8,10.9-2.8c10.7,0,22,7.1,22,27.3
		v37.1h-15.9V74.9c0-9.2-3.4-16-12.2-16c-6.2,0-10.6,4.1-12.3,8.9c-0.5,1.3-0.6,3-0.6,4.8v37.7h-16V18.4z"/>
	<path id="XMLID_12_" class="st0" d="M349.3,83.2c0.4,11.4,9.3,16.3,19.4,16.3c7.4,0,12.7-1,17.5-2.8l2.3,11c-5.4,2.2-12.9,4-22,4
		c-20.4,0-32.5-12.7-32.5-32c0-17.5,10.6-33.9,30.8-33.9c20.6,0,27.2,16.8,27.2,30.7c0,3-0.3,5.3-0.5,6.7H349.3z M377,72.1
		c0.1-5.8-2.5-15.4-13.1-15.4c-9.8,0-14,8.9-14.6,15.4H377z"/>
	<path id="XMLID_13_" class="st0" d="M404.8,67.5c0-8.5-0.1-14.6-0.5-20.3h13.8l0.5,12h0.5c3.1-8.9,10.5-13.5,17.2-13.5
		c1.6,0,2.5,0.1,3.8,0.4v15c-1.3-0.3-2.7-0.5-4.7-0.5c-7.6,0-12.8,4.9-14.2,12c-0.3,1.4-0.5,3.1-0.5,4.9v32.6h-15.9V67.5z"/>
	<path id="XMLID_16_" class="st0" d="M460.9,83.2c0.4,11.4,9.3,16.3,19.4,16.3c7.4,0,12.7-1,17.5-2.8l2.3,11c-5.4,2.2-12.9,4-22,4
		c-20.4,0-32.5-12.7-32.5-32c0-17.5,10.6-33.9,30.8-33.9c20.6,0,27.2,16.8,27.2,30.7c0,3-0.3,5.3-0.5,6.7H460.9z M488.6,72.1
		c0.1-5.8-2.5-15.4-13.1-15.4c-9.8,0-14,8.9-14.6,15.4H488.6z"/>
	<path id="XMLID_17_" class="st0" d="M572.9,91.3c0,7.5,0.3,13.7,0.5,18.9h-14l-0.8-9.6h-0.3c-2.7,4.5-8.9,11-20.2,11
		c-11.5,0-22-6.9-22-27.4v-37h15.9v34.3c0,10.5,3.4,17.2,11.8,17.2c6.3,0,10.5-4.5,12.2-8.5c0.5-1.4,0.9-3.1,0.9-4.9v-38h15.9V91.3z
		"/>
	<path id="XMLID_18_" class="st0" d="M590.1,66c0-7.2-0.1-13.3-0.5-18.8h13.7l0.6,9.3h0.4c3.1-4.9,8.8-10.7,19.4-10.7
		c8.3,0,14.8,4.7,17.5,11.6h0.3c2.2-3.5,4.8-6.1,7.8-7.9c3.5-2.5,7.5-3.8,12.7-3.8c10.5,0,21.1,7.1,21.1,27.3v37.1h-15.5V75.4
		c0-10.5-3.6-16.7-11.3-16.7c-5.4,0-9.4,3.9-11.1,8.4c-0.4,1.6-0.8,3.5-0.8,5.3v37.8h-15.5V73.7c0-8.8-3.5-15-10.9-15
		c-6,0-10,4.7-11.4,9.1c-0.6,1.6-0.9,3.4-0.9,5.2v37.3h-15.5V66z"/>
	<path id="XMLID_21_" class="st1" d="M100.8,17.7c-36.6,0-42.7-13.9-42.8-14c-0.3-0.7-0.9-1.1-1.7-1.1h0c-0.7,0-1.4,0.5-1.7,1.1
		c0,0.1-6.4,14-42.8,14c-1,0-1.8,0.8-1.8,1.8v62.2c0,25.5,43.7,44.9,45.6,45.7c0.2,0.1,0.5,0.1,0.7,0.1c0.2,0,0.5,0,0.7-0.1
		c1.9-0.8,45.6-20.3,45.6-45.7V19.5C102.6,18.5,101.8,17.7,100.8,17.7z M92.6,78c0,19.9-34.2,35.1-35.7,35.8
		c-0.2,0.1-0.4,0.1-0.6,0.1c-0.2,0-0.4,0-0.6-0.1c-1.4-0.6-35.7-15.9-35.7-35.8V29.4c0-0.8,0.6-1.4,1.4-1.4C50,27.9,54.9,17.1,55,17
		c0.2-0.5,0.7-0.9,1.3-0.9h0c0.6,0,1.1,0.4,1.3,0.9c0,0.1,4.9,11,33.5,11c0.8,0,1.4,0.6,1.4,1.4L92.6,78z"/>
	<polygon id="XMLID_22_" class="st2" points="80.8,74.6 56.3,83.7 31.8,74.6 56.3,32.6 	"/>
	<polygon id="XMLID_23_" class="st2" points="79.7,79.7 56.3,107.1 32.9,79.7 56.3,88.4 	"/>
	<polygon id="XMLID_24_" class="st0" points="56.3,88.4 79.7,79.7 56.3,107.1 	"/>
	<polygon id="XMLID_25_" class="st0" points="80.8,74.6 56.3,83.7 56.3,32.6 	"/>
	<path id="XMLID_26_" d="M418.9,33.3c-0.7,0.3-2.1,0.7-4,0.7c-4.9,0-7.8-3.1-7.8-7.7c0-5.1,3.5-8.1,8.2-8.1c1.8,0,3.2,0.4,3.7,0.7
		l-0.6,2.2c-0.7-0.3-1.7-0.6-3-0.6c-3.1,0-5.4,2-5.4,5.6c0,3.4,2,5.5,5.4,5.5c1.1,0,2.3-0.2,3.1-0.6L418.9,33.3z"/>
	<path id="XMLID_29_" d="M430.4,18.6c1-0.2,2.6-0.3,4.2-0.3c2.2,0,3.7,0.4,4.7,1.2c0.8,0.7,1.3,1.8,1.3,3.1c0,2-1.3,3.3-2.8,3.8v0.1
		c1.1,0.4,1.8,1.5,2.1,3c0.5,1.9,0.9,3.7,1.2,4.3h-2.9c-0.2-0.5-0.6-1.7-1-3.6c-0.4-2-1.2-2.6-2.8-2.7h-1.4v6.3h-2.8V18.6z
		 M433.1,25.4h1.7c1.9,0,3.1-1,3.1-2.5c0-1.7-1.2-2.5-3-2.5c-0.9,0-1.5,0.1-1.7,0.1V25.4z"/>
	<path id="XMLID_30_" d="M455.9,33.7v-6.4l-4.9-9h3.2l1.8,3.9c0.5,1.1,0.9,2,1.3,3.1h0c0.4-1,0.8-1.9,1.3-3.1l1.8-3.9h3.2l-5.1,8.9
		v6.5H455.9z"/>
	<path id="XMLID_33_" d="M474.6,18.6c1-0.2,2.4-0.3,4.3-0.3c2,0,3.6,0.4,4.5,1.3c0.9,0.8,1.5,2,1.5,3.4c0,1.5-0.5,2.7-1.3,3.5
		c-1.1,1.1-2.9,1.6-4.9,1.6c-0.5,0-1,0-1.4-0.1v5.8h-2.8V18.6z M477.4,25.7c0.3,0.1,0.8,0.1,1.4,0.1c2.1,0,3.4-1,3.4-2.8
		c0-1.7-1.2-2.6-3.1-2.6c-0.8,0-1.3,0.1-1.6,0.1V25.7z"/>
	<polygon id="XMLID_34_" points="499.4,20.7 495,20.7 495,18.4 506.6,18.4 506.6,20.7 502.2,20.7 502.2,33.7 499.4,33.7 	"/>
	<path id="XMLID_37_" d="M531.1,25.9c0,5.1-3.1,8.1-7.4,8.1c-4.3,0-7.1-3.3-7.1-7.8c0-4.7,3-8,7.3-8
		C528.5,18.1,531.1,21.5,531.1,25.9z M519.7,26.1c0,3.1,1.6,5.6,4.3,5.6c2.7,0,4.2-2.5,4.2-5.7c0-2.9-1.4-5.6-4.2-5.6
		C521.2,20.4,519.7,23,519.7,26.1z"/>
	<path id="XMLID_38_" d="M558.9,33.7l-3.8-15.4h3l1.5,7c0.4,1.9,0.8,3.8,1,5.4h0c0.3-1.6,0.7-3.4,1.1-5.4l1.7-6.9h2.9l1.5,7.1
		c0.4,1.8,0.7,3.5,0.9,5.2h0c0.3-1.7,0.6-3.4,1-5.3l1.6-6.9h2.8l-4.1,15.4h-3l-1.6-7.2c-0.4-1.8-0.7-3.2-0.8-4.9h0
		c-0.3,1.6-0.6,3.1-1,4.9l-1.8,7.2H558.9z"/>
	<path id="XMLID_41_" d="M588.4,29.4l-1.3,4.4h-2.9l4.9-15.4h3.6l5,15.4h-3l-1.4-4.4H588.4z M592.8,27.3l-1.2-3.8
		c-0.3-0.9-0.5-2-0.8-2.9h0c-0.2,0.9-0.5,2-0.7,2.9l-1.2,3.8H592.8z"/>
	<polygon id="XMLID_42_" points="608.9,18.4 611.7,18.4 611.7,31.4 618,31.4 618,33.7 608.9,33.7 	"/>
	<polygon id="XMLID_43_" points="629.3,18.4 632.1,18.4 632.1,31.4 638.4,31.4 638.4,33.7 629.3,33.7 	"/>
	<polygon id="XMLID_44_" points="658.2,26.9 652.4,26.9 652.4,31.4 658.8,31.4 658.8,33.7 649.6,33.7 649.6,18.4 658.5,18.4 
		658.5,20.7 652.4,20.7 652.4,24.7 658.2,24.7 	"/>
	<polygon id="XMLID_45_" points="673.3,20.7 669,20.7 669,18.4 680.6,18.4 680.6,20.7 676.1,20.7 676.1,33.7 673.3,33.7 	"/>
	<path id="XMLID_46_" class="st2" d="M35,38.3c-0.1,1.8-1.5,3.2-3.6,3.1c-2-0.1-3.3-1.6-3.2-3.4c0.1-1.9,1.5-3.3,3.6-3.2
		C33.8,34.9,35,36.4,35,38.3z"/>
	<path id="XMLID_47_" class="st2" d="M84.2,38.3c-0.1,1.8-1.5,3.2-3.6,3.1c-2-0.1-3.3-1.6-3.2-3.4c0.1-1.9,1.5-3.3,3.6-3.2
		C83,34.9,84.2,36.4,84.2,38.3z"/>
</g>
</svg>
