<?xml version="1.0" encoding="utf-8"?>
<!-- Generator: Adobe Illustrator 23.1.0, SVG Export Plug-In . SVG Version: 6.00 Build 0)  -->
<svg version="1.1" id="Layer_1" xmlns="http://www.w3.org/2000/svg" xmlns:xlink="http://www.w3.org/1999/xlink" x="0px" y="0px"
	 viewBox="0 0 693 130" style="enable-background:new 0 0 693 130;" xml:space="preserve">
<style type="text/css">
	.st0{fill:#C52826;}
	.st1{fill:#333333;}
	.st2{fill:#F05023;}
</style>
<path id="XMLID_6_" class="st0" d="M136.4,27.6c0,4.8-3.5,8.5-9.1,8.5c-5.3,0-8.8-3.8-8.8-8.5c0-4.9,3.6-8.7,8.9-8.7
	C132.9,18.9,136.3,22.7,136.4,27.6z M119.5,108.2v-63h16v63H119.5z"/>
<polygon id="XMLID_7_" class="st0" points="202,69.5 169.1,69.5 169.1,95.2 205.9,95.2 205.9,108.2 153.2,108.2 153.2,21 204,21 
	204,34.1 169.1,34.1 169.1,56.6 202,56.6 "/>
<path id="XMLID_8_" class="st0" d="M236.8,29v16.2H252v11.9h-15.1v27.8c0,7.6,2.1,11.6,8.2,11.6c3,0,4.4-0.3,6.2-0.8l0.3,12.2
	c-2.3,0.9-6.5,1.7-11.5,1.7c-5.8,0-10.7-2.1-13.7-5.3c-3.4-3.6-4.9-9.3-4.9-17.6V57.1h-9.1V45.2h9.1V33.6L236.8,29z"/>
<path id="XMLID_9_" class="st0" d="M264,16.4h16v37.5h0.3c1.9-3,4.7-5.6,7.9-7.2c3.1-1.8,6.9-2.8,10.9-2.8c10.7,0,22,7.1,22,27.3
	v37.1h-15.9V72.9c0-9.2-3.4-16-12.2-16c-6.2,0-10.6,4.1-12.3,8.9c-0.5,1.3-0.6,3-0.6,4.8v37.7h-16L264,16.4L264,16.4z"/>
<path id="XMLID_12_" class="st0" d="M349.3,81.2c0.4,11.4,9.3,16.3,19.4,16.3c7.4,0,12.7-1,17.5-2.8l2.3,11c-5.4,2.2-12.9,4-22,4
	c-20.4,0-32.5-12.7-32.5-32c0-17.5,10.6-33.9,30.8-33.9c20.6,0,27.2,16.8,27.2,30.7c0,3-0.3,5.3-0.5,6.7H349.3z M377,70.1
	c0.1-5.8-2.5-15.4-13.1-15.4c-9.8,0-14,8.9-14.6,15.4H377z"/>
<path id="XMLID_13_" class="st0" d="M404.8,65.5c0-8.5-0.1-14.6-0.5-20.3h13.8l0.5,12h0.5c3.1-8.9,10.5-13.5,17.2-13.5
	c1.6,0,2.5,0.1,3.8,0.4v15c-1.3-0.3-2.7-0.5-4.7-0.5c-7.6,0-12.8,4.9-14.2,12c-0.3,1.4-0.5,3.1-0.5,4.9v32.6h-15.9L404.8,65.5
	L404.8,65.5z"/>
<path id="XMLID_16_" class="st0" d="M460.9,81.2c0.4,11.4,9.3,16.3,19.4,16.3c7.4,0,12.7-1,17.5-2.8l2.3,11c-5.4,2.2-12.9,4-22,4
	c-20.4,0-32.5-12.7-32.5-32c0-17.5,10.6-33.9,30.8-33.9c20.6,0,27.2,16.8,27.2,30.7c0,3-0.3,5.3-0.5,6.7H460.9z M488.6,70.1
	c0.1-5.8-2.5-15.4-13.1-15.4c-9.8,0-14,8.9-14.6,15.4H488.6z"/>
<path id="XMLID_17_" class="st0" d="M572.9,89.3c0,7.5,0.3,13.7,0.5,18.9h-14l-0.8-9.6h-0.3c-2.7,4.5-8.9,11-20.2,11
	c-11.5,0-22-6.9-22-27.4v-37H532v34.3c0,10.5,3.4,17.2,11.8,17.2c6.3,0,10.5-4.5,12.2-8.5c0.5-1.4,0.9-3.1,0.9-4.9v-38h15.9
	L572.9,89.3L572.9,89.3z"/>
<path id="XMLID_18_" class="st0" d="M590.1,64c0-7.2-0.1-13.3-0.5-18.8h13.7l0.6,9.3h0.4c3.1-4.9,8.8-10.7,19.4-10.7
	c8.3,0,14.8,4.7,17.5,11.6h0.3c2.2-3.5,4.8-6.1,7.8-7.9c3.5-2.5,7.5-3.8,12.7-3.8c10.5,0,21.1,7.1,21.1,27.3v37.1h-15.5V73.4
	c0-10.5-3.6-16.7-11.3-16.7c-5.4,0-9.4,3.9-11.1,8.4c-0.4,1.6-0.8,3.5-0.8,5.3v37.8h-15.5V71.7c0-8.8-3.5-15-10.9-15
	c-6,0-10,4.7-11.4,9.1c-0.6,1.6-0.9,3.4-0.9,5.2v37.3h-15.5L590.1,64L590.1,64z"/>
<path id="XMLID_21_" class="st1" d="M100.8,15.7c-36.6,0-42.7-13.9-42.8-14c-0.3-0.7-0.9-1.1-1.7-1.1l0,0c-0.7,0-1.4,0.5-1.7,1.1
	c0,0.1-6.4,14-42.8,14c-1,0-1.8,0.8-1.8,1.8v62.2c0,25.5,43.7,44.9,45.6,45.7c0.2,0.1,0.5,0.1,0.7,0.1s0.5,0,0.7-0.1
	c1.9-0.8,45.6-20.3,45.6-45.7V17.5C102.6,16.5,101.8,15.7,100.8,15.7z M92.6,76c0,19.9-34.2,35.1-35.7,35.8
	c-0.2,0.1-0.4,0.1-0.6,0.1c-0.2,0-0.4,0-0.6-0.1C54.3,111.2,20,95.9,20,76V27.4c0-0.8,0.6-1.4,1.4-1.4C50,25.9,54.9,15.1,55,15
	c0.2-0.5,0.7-0.9,1.3-0.9l0,0c0.6,0,1.1,0.4,1.3,0.9c0,0.1,4.9,11,33.5,11c0.8,0,1.4,0.6,1.4,1.4L92.6,76z"/>
<polygon id="XMLID_22_" class="st2" points="80.8,72.6 56.3,81.7 31.8,72.6 56.3,30.6 "/>
<polygon id="XMLID_23_" class="st2" points="79.7,77.7 56.3,105.1 32.9,77.7 56.3,86.4 "/>
<polygon id="XMLID_24_" class="st0" points="56.3,86.4 79.7,77.7 56.3,105.1 "/>
<polygon id="XMLID_25_" class="st0" points="80.8,72.6 56.3,81.7 56.3,30.6 "/>
<path id="XMLID_46_" class="st2" d="M35,36.3c-0.1,1.8-1.5,3.2-3.6,3.1c-2-0.1-3.3-1.6-3.2-3.4c0.1-1.9,1.5-3.3,3.6-3.2
	C33.8,32.9,35,34.4,35,36.3z"/>
<path id="XMLID_47_" class="st2" d="M84.2,36.3c-0.1,1.8-1.5,3.2-3.6,3.1c-2-0.1-3.3-1.6-3.2-3.4c0.1-1.9,1.5-3.3,3.6-3.2
	C83,32.9,84.2,34.4,84.2,36.3z"/>
</svg>
