<?xml version="1.0" encoding="utf-8"?>
<!-- Generator: Adobe Illustrator 23.1.0, SVG Export Plug-In . SVG Version: 6.00 Build 0)  -->
<svg version="1.1" id="Layer_1" xmlns="http://www.w3.org/2000/svg" xmlns:xlink="http://www.w3.org/1999/xlink" x="0px" y="0px"
	 viewBox="0 0 693 130" style="enable-background:new 0 0 693 130;" xml:space="preserve">
<style type="text/css">
	.st0{fill:#C52826;}
	.st1{fill:#333333;}
	.st2{fill:#F05023;}
	.st3{enable-background:new    ;}
</style>
<path id="XMLID_6_" class="st0" d="M136.4,29.6c0,4.8-3.5,8.5-9.1,8.5c-5.3,0-8.8-3.8-8.8-8.5c0-4.9,3.6-8.7,8.9-8.7
	C132.9,20.9,136.3,24.7,136.4,29.6z M119.5,110.2v-63h16v63H119.5z"/>
<polygon id="XMLID_7_" class="st0" points="202,71.5 169.1,71.5 169.1,97.2 205.9,97.2 205.9,110.2 153.2,110.2 153.2,23 204,23 
	204,36.1 169.1,36.1 169.1,58.6 202,58.6 "/>
<path id="XMLID_8_" class="st0" d="M236.8,31v16.2H252v11.9h-15.1v27.8c0,7.6,2.1,11.6,8.2,11.6c3,0,4.4-0.3,6.2-0.8l0.3,12.2
	c-2.3,0.9-6.5,1.7-11.5,1.7c-5.8,0-10.7-2.1-13.7-5.3c-3.4-3.6-4.9-9.3-4.9-17.6V59.1h-9.1V47.2h9.1V35.6L236.8,31z"/>
<path id="XMLID_9_" class="st0" d="M264,18.4h16v37.5h0.3c1.9-3,4.7-5.6,7.9-7.2c3.1-1.8,6.9-2.8,10.9-2.8c10.7,0,22,7.1,22,27.3
	v37.1h-15.9V74.9c0-9.2-3.4-16-12.2-16c-6.2,0-10.6,4.1-12.3,8.9c-0.5,1.3-0.6,3-0.6,4.8v37.7h-16L264,18.4L264,18.4z"/>
<path id="XMLID_12_" class="st0" d="M349.3,83.2c0.4,11.4,9.3,16.3,19.4,16.3c7.4,0,12.7-1,17.5-2.8l2.3,11c-5.4,2.2-12.9,4-22,4
	c-20.4,0-32.5-12.7-32.5-32c0-17.5,10.6-33.9,30.8-33.9c20.6,0,27.2,16.8,27.2,30.7c0,3-0.3,5.3-0.5,6.7H349.3z M377,72.1
	c0.1-5.8-2.5-15.4-13.1-15.4c-9.8,0-14,8.9-14.6,15.4H377z"/>
<path id="XMLID_13_" class="st0" d="M404.8,67.5c0-8.5-0.1-14.6-0.5-20.3h13.8l0.5,12h0.5c3.1-8.9,10.5-13.5,17.2-13.5
	c1.6,0,2.5,0.1,3.8,0.4v15c-1.3-0.3-2.7-0.5-4.7-0.5c-7.6,0-12.8,4.9-14.2,12c-0.3,1.4-0.5,3.1-0.5,4.9v32.6h-15.9L404.8,67.5
	L404.8,67.5z"/>
<path id="XMLID_16_" class="st0" d="M460.9,83.2c0.4,11.4,9.3,16.3,19.4,16.3c7.4,0,12.7-1,17.5-2.8l2.3,11c-5.4,2.2-12.9,4-22,4
	c-20.4,0-32.5-12.7-32.5-32c0-17.5,10.6-33.9,30.8-33.9c20.6,0,27.2,16.8,27.2,30.7c0,3-0.3,5.3-0.5,6.7H460.9z M488.6,72.1
	c0.1-5.8-2.5-15.4-13.1-15.4c-9.8,0-14,8.9-14.6,15.4H488.6z"/>
<path id="XMLID_17_" class="st0" d="M572.9,91.3c0,7.5,0.3,13.7,0.5,18.9h-14l-0.8-9.6h-0.3c-2.7,4.5-8.9,11-20.2,11
	c-11.5,0-22-6.9-22-27.4v-37H532v34.3c0,10.5,3.4,17.2,11.8,17.2c6.3,0,10.5-4.5,12.2-8.5c0.5-1.4,0.9-3.1,0.9-4.9v-38h15.9
	L572.9,91.3L572.9,91.3z"/>
<path id="XMLID_18_" class="st0" d="M590.1,66c0-7.2-0.1-13.3-0.5-18.8h13.7l0.6,9.3h0.4c3.1-4.9,8.8-10.7,19.4-10.7
	c8.3,0,14.8,4.7,17.5,11.6h0.3c2.2-3.5,4.8-6.1,7.8-7.9c3.5-2.5,7.5-3.8,12.7-3.8c10.5,0,21.1,7.1,21.1,27.3v37.1h-15.5V75.4
	c0-10.5-3.6-16.7-11.3-16.7c-5.4,0-9.4,3.9-11.1,8.4c-0.4,1.6-0.8,3.5-0.8,5.3v37.8h-15.5V73.7c0-8.8-3.5-15-10.9-15
	c-6,0-10,4.7-11.4,9.1c-0.6,1.6-0.9,3.4-0.9,5.2v37.3h-15.5L590.1,66L590.1,66z"/>
<path id="XMLID_21_" class="st1" d="M100.8,17.7c-36.6,0-42.7-13.9-42.8-14c-0.3-0.7-0.9-1.1-1.7-1.1l0,0c-0.7,0-1.4,0.5-1.7,1.1
	c0,0.1-6.4,14-42.8,14c-1,0-1.8,0.8-1.8,1.8v62.2c0,25.5,43.7,44.9,45.6,45.7c0.2,0.1,0.5,0.1,0.7,0.1s0.5,0,0.7-0.1
	c1.9-0.8,45.6-20.3,45.6-45.7V19.5C102.6,18.5,101.8,17.7,100.8,17.7z M92.6,78c0,19.9-34.2,35.1-35.7,35.8
	c-0.2,0.1-0.4,0.1-0.6,0.1c-0.2,0-0.4,0-0.6-0.1C54.3,113.2,20,97.9,20,78V29.4c0-0.8,0.6-1.4,1.4-1.4C50,27.9,54.9,17.1,55,17
	c0.2-0.5,0.7-0.9,1.3-0.9l0,0c0.6,0,1.1,0.4,1.3,0.9c0,0.1,4.9,11,33.5,11c0.8,0,1.4,0.6,1.4,1.4L92.6,78z"/>
<polygon id="XMLID_22_" class="st2" points="80.8,74.6 56.3,83.7 31.8,74.6 56.3,32.6 "/>
<polygon id="XMLID_23_" class="st2" points="79.7,79.7 56.3,107.1 32.9,79.7 56.3,88.4 "/>
<polygon id="XMLID_24_" class="st0" points="56.3,88.4 79.7,79.7 56.3,107.1 "/>
<polygon id="XMLID_25_" class="st0" points="80.8,74.6 56.3,83.7 56.3,32.6 "/>
<path id="XMLID_46_" class="st2" d="M35,38.3c-0.1,1.8-1.5,3.2-3.6,3.1c-2-0.1-3.3-1.6-3.2-3.4c0.1-1.9,1.5-3.3,3.6-3.2
	C33.8,34.9,35,36.4,35,38.3z"/>
<path id="XMLID_47_" class="st2" d="M84.2,38.3c-0.1,1.8-1.5,3.2-3.6,3.1c-2-0.1-3.3-1.6-3.2-3.4c0.1-1.9,1.5-3.3,3.6-3.2
	C83,34.9,84.2,36.4,84.2,38.3z"/>
<g class="st3">
	<path class="st1" d="M469.2,5.6c-0.1,0-0.2,0.1-0.2,0.2c-0.1,0.1-0.1,0.3-0.1,0.3v12.1c0,0.4,0.1,0.6,0.2,0.8
		c0.1,0.2,0.4,0.3,0.7,0.4c0.3,0.1,0.5,0.1,0.7,0.1c0.1,0,0.2,0.1,0.2,0.4c0,0.4-0.2,0.6-0.5,0.6c-0.1,0-0.4,0-0.9-0.1
		c-0.5-0.1-1.2-0.1-2.1-0.1s-1.6,0-2.1,0.1s-0.8,0.1-0.9,0.1c-0.3,0-0.5-0.2-0.5-0.6c0-0.2,0.1-0.3,0.2-0.4c0.1,0,0.3-0.1,0.6-0.1
		c0.4-0.1,0.6-0.2,0.8-0.3c0.1-0.2,0.2-0.4,0.2-0.9V6.2c0-0.1,0-0.2-0.1-0.4s-0.1-0.2-0.2-0.2h-0.3c-0.4,0-0.8,0.1-1.1,0.4
		c-0.3,0.3-0.6,0.6-0.9,0.9c-0.4,0.5-0.7,1-0.9,1.3c-0.2,0.3-0.4,0.5-0.6,0.5c-0.3,0-0.4-0.1-0.4-0.4c0-0.1,0.1-0.5,0.2-1
		c0.1-0.5,0.3-1.3,0.5-2.3c0.1-0.4,0.2-0.8,0.3-1.1c0.1-0.3,0.2-0.5,0.4-0.5c0.1,0,0.2,0,0.2,0.1c0.1,0.1,0.1,0.1,0.1,0.2
		c0,0.1,0.1,0.2,0.1,0.2c0,0.1,0.1,0.1,0.1,0.1c0.1,0.2,0.1,0.3,0.2,0.4c0.1,0,0.2,0.1,0.4,0.1c0.1,0,0.2,0,0.4,0s0.3,0,0.5,0h5.9
		c0.7,0,1.3,0,1.7,0c0.4,0,0.7-0.1,0.7-0.3c0.1,0,0.2,0,0.2-0.1c0.1-0.1,0.1-0.2,0.2-0.3c0.1-0.1,0.1-0.2,0.2-0.3
		c0.1-0.1,0.2-0.1,0.3-0.1c0.1,0,0.2,0.1,0.3,0.2c0.1,0.1,0.1,0.3,0.1,0.4c0,0.4,0,0.9-0.1,1.5c-0.1,0.6-0.2,1.4-0.2,2.3
		c0,0.4-0.1,0.6-0.2,0.9s-0.2,0.3-0.4,0.3c-0.2,0-0.4-0.2-0.5-0.5C472.2,8,472,7.6,471.7,7c-0.2-0.4-0.4-0.7-0.7-1
		c-0.3-0.3-0.7-0.4-1.2-0.4H469.2z"/>
	<path class="st1" d="M481.1,9.8c0,0.1,0,0.2,0.1,0.2c0,0,0.1,0,0.2-0.1l0.6-0.4c0.3-0.2,0.7-0.4,1.1-0.5c0.4-0.1,0.8-0.2,1.2-0.2
		c2.4,0,3.6,1.3,3.6,3.8V18c0,0.4,0,0.6,0.1,0.8s0.2,0.3,0.4,0.5c0.1,0.1,0.3,0.1,0.4,0.1c0.1,0,0.3,0,0.4,0s0.2,0.1,0.3,0.1
		c0.1,0.1,0.1,0.2,0.1,0.3c0,0.3-0.2,0.4-0.5,0.4c-0.1,0-0.4,0-0.8-0.1c-0.4-0.1-1-0.1-1.7-0.1c-1,0-1.8,0-2.3,0.1
		c-0.5,0.1-0.9,0.1-0.9,0.1c-0.3,0-0.4-0.1-0.4-0.4c0-0.2,0-0.3,0.1-0.3c0.1-0.1,0.1-0.1,0.2-0.1s0.2,0,0.3,0c0.1,0,0.2,0,0.4-0.1
		c0.2-0.1,0.4-0.2,0.4-0.4s0.1-0.5,0.1-0.9v-4.9c0-1.9-0.5-2.8-1.6-2.8c-0.8,0-1.2,0.3-1.5,0.8c-0.2,0.5-0.3,1.3-0.3,2.2V18
		c0,0.3,0,0.6,0.1,0.8c0,0.2,0.1,0.4,0.3,0.5c0.1,0.1,0.2,0.1,0.3,0.1c0.1,0,0.2,0,0.3,0c0.1,0,0.2,0.1,0.2,0.1s0.1,0.2,0.1,0.3
		c0,0.3-0.1,0.4-0.2,0.4c-0.1,0-0.4,0-0.8-0.1c-0.4-0.1-1.1-0.1-1.9-0.1c-0.9,0-1.5,0-2,0.1c-0.5,0.1-0.8,0.1-1,0.1
		c-0.1,0-0.2,0-0.3-0.1c-0.1-0.1-0.1-0.2-0.1-0.3c0-0.2,0-0.3,0.1-0.3s0.2-0.1,0.3-0.1c0.1,0,0.2,0,0.4,0s0.3,0,0.4-0.1
		c0.3-0.1,0.4-0.3,0.5-0.5c0.1-0.2,0.1-0.5,0.1-0.9V6.7c0-0.3,0-0.5-0.1-0.7c-0.1-0.2-0.2-0.3-0.4-0.4c-0.1-0.1-0.2-0.1-0.4-0.1
		c-0.1,0-0.2-0.1-0.3-0.1s-0.2-0.1-0.3-0.1s-0.1-0.2-0.1-0.3c0-0.3,0.1-0.5,0.4-0.5s0.6-0.1,1.1-0.2c0.5-0.1,0.9-0.2,1.2-0.3
		c0.4-0.1,0.7-0.2,0.9-0.3c0.2-0.1,0.4-0.2,0.6-0.3c0.1-0.1,0.3-0.1,0.4-0.1c0.3,0,0.4,0.2,0.4,0.6c0,0.2,0,0.4,0,0.6
		c0,0.2,0,0.5,0,0.8V9.8z"/>
	<path class="st1" d="M496.9,18c0,0.4,0,0.6,0.1,0.8s0.2,0.3,0.4,0.4c0.1,0.1,0.3,0.1,0.5,0.1c0.2,0,0.3,0,0.4,0s0.2,0.1,0.3,0.1
		c0.1,0.1,0.1,0.2,0.1,0.3c0,0.3-0.2,0.5-0.5,0.5c-0.2,0-0.5,0-0.9-0.1c-0.4-0.1-1-0.1-1.6-0.1c-1.1,0-1.9,0-2.5,0.1
		c-0.6,0.1-0.9,0.1-1,0.1c-0.3,0-0.4-0.1-0.4-0.4c0-0.1,0-0.3,0.1-0.3s0.2-0.1,0.3-0.1c0.1,0,0.2,0,0.4,0c0.1,0,0.3,0,0.4-0.1
		c0.3-0.1,0.4-0.3,0.5-0.5s0.1-0.5,0.1-0.9v-4.8c0-0.3,0-0.6,0-0.8c0-0.2-0.1-0.3-0.3-0.4c-0.1-0.1-0.2-0.1-0.4-0.1
		c-0.1,0-0.3,0-0.4,0c-0.1,0-0.2-0.1-0.3-0.1s-0.1-0.2-0.1-0.3c0-0.1,0-0.3,0.1-0.3c0.1-0.1,0.2-0.1,0.4-0.2c0.2,0,0.4-0.1,0.6-0.1
		c0.2-0.1,0.5-0.1,0.8-0.3c0.5-0.2,0.8-0.4,1.2-0.6s0.6-0.4,0.8-0.5c0.2-0.2,0.4-0.3,0.5-0.4c0.1-0.1,0.2-0.1,0.3-0.1
		c0.2,0,0.3,0.2,0.3,0.7V18z M496.7,4.7c0.4,0.4,0.6,0.8,0.6,1.4c0,0.5-0.2,1-0.6,1.4c-0.4,0.4-0.8,0.5-1.4,0.5
		c-0.5,0-1-0.2-1.4-0.5c-0.4-0.4-0.6-0.8-0.6-1.4c0-0.6,0.2-1,0.6-1.4s0.8-0.5,1.4-0.5C495.8,4.1,496.3,4.3,496.7,4.7z"/>
	<path class="st1" d="M505.5,10.1c0,0.2,0,0.3,0.1,0.3c0.1,0,0.1,0,0.2-0.1l0.2-0.2c0.4-0.4,0.9-0.7,1.4-0.9
		c0.6-0.2,1.1-0.4,1.7-0.4c1.2,0,2.1,0.3,2.7,0.9c0.6,0.6,0.9,1.5,0.9,2.6V18c0,0.4,0,0.6,0.1,0.8s0.2,0.3,0.4,0.4
		c0.1,0.1,0.3,0.1,0.4,0.1c0.1,0,0.3,0,0.4,0s0.2,0.1,0.3,0.1c0.1,0.1,0.1,0.2,0.1,0.3c0,0.1,0,0.2-0.1,0.3
		c-0.1,0.1-0.2,0.1-0.2,0.1c-0.1,0-0.4,0-0.9-0.1c-0.5-0.1-1.2-0.1-2.1-0.1c-0.8,0-1.5,0-1.9,0.1c-0.5,0.1-0.8,0.1-0.9,0.1
		c-0.3,0-0.4-0.1-0.4-0.4c0-0.2,0-0.3,0.1-0.3c0.1-0.1,0.1-0.1,0.2-0.1s0.2,0,0.3,0c0.1,0,0.2,0,0.4-0.1c0.2-0.1,0.4-0.2,0.4-0.4
		s0.1-0.5,0.1-0.9v-4.9c0-1.9-0.5-2.8-1.6-2.8c-0.8,0-1.2,0.3-1.5,0.8c-0.2,0.5-0.3,1.3-0.3,2.2V18c0,0.3,0,0.6,0.1,0.8
		c0,0.2,0.1,0.4,0.3,0.5c0.1,0.1,0.2,0.1,0.3,0.1c0.1,0,0.2,0,0.3,0.1s0.2,0.1,0.2,0.1s0.1,0.2,0.1,0.3c0,0.3-0.1,0.4-0.4,0.4
		c-0.1,0-0.4,0-0.8-0.1c-0.4,0-1-0.1-1.8-0.1c-0.9,0-1.6,0-2.1,0.1c-0.5,0.1-0.8,0.1-0.9,0.1c-0.1,0-0.2,0-0.3-0.1
		c-0.1-0.1-0.1-0.2-0.1-0.3c0-0.2,0-0.3,0.1-0.3s0.2-0.1,0.3-0.1c0.1,0,0.2,0,0.4,0s0.3,0,0.4-0.1c0.3-0.1,0.4-0.3,0.5-0.5
		c0.1-0.2,0.1-0.5,0.1-0.9v-5.1c0-0.3,0-0.6,0-0.8c0-0.2-0.1-0.3-0.3-0.4c-0.1-0.1-0.3-0.1-0.4-0.1c-0.1,0-0.3,0-0.4-0.1
		c-0.1,0-0.2-0.1-0.3-0.1c-0.1-0.1-0.1-0.1-0.1-0.3c0-0.2,0-0.3,0.1-0.3s0.2-0.1,0.4-0.2c0.2,0,0.4-0.1,0.6-0.1
		c0.2-0.1,0.5-0.1,0.8-0.3c0.4-0.2,0.7-0.3,1-0.5c0.3-0.2,0.5-0.4,0.6-0.5c0.2-0.2,0.3-0.3,0.4-0.4c0.1-0.1,0.2-0.2,0.3-0.2
		c0.1,0,0.2,0.1,0.2,0.2s0,0.3,0,0.4V10.1z"/>
	<path class="st1" d="M521.8,13.6c0,0.1,0,0.2,0.1,0.2c0,0,0.1-0.1,0.2-0.2l1.9-1.6c0.8-0.7,1.2-1.2,1.2-1.4c0-0.2-0.1-0.3-0.2-0.3
		c-0.1-0.1-0.3-0.1-0.5-0.2c-0.2,0-0.3-0.1-0.5-0.2C524,10,524,9.8,524,9.7c0-0.2,0-0.3,0.1-0.3c0.1,0,0.2-0.1,0.4-0.1
		c0.3,0,0.6,0,1,0.1s0.9,0.1,1.4,0.1c0.6,0,1.1,0,1.5-0.1c0.4-0.1,0.7-0.1,0.9-0.1c0.3,0,0.5,0.1,0.5,0.4c0,0.2-0.1,0.3-0.3,0.4
		c-0.2,0.1-0.4,0.1-0.7,0.2c-0.3,0.1-0.7,0.2-1.1,0.4c-0.4,0.2-0.9,0.5-1.5,1l-0.9,0.8c-0.1,0.1-0.1,0.2-0.1,0.3
		c0,0.1,0,0.2,0.1,0.2l3.7,5.3c0.3,0.4,0.5,0.6,0.7,0.8c0.2,0.1,0.4,0.3,0.6,0.3c0.2,0.1,0.3,0.1,0.4,0.2c0.1,0.1,0.1,0.2,0.1,0.3
		c0,0.2,0,0.3-0.1,0.4c-0.1,0.1-0.2,0.1-0.4,0.1c-0.1,0-0.4,0-0.8-0.1c-0.4,0-0.9-0.1-1.6-0.1c-0.6,0-1.1,0-1.4,0.1
		c-0.4,0.1-0.6,0.1-0.8,0.1c-0.4,0-0.6-0.1-0.6-0.4c0-0.2,0-0.4,0.2-0.5c0.1-0.1,0.2-0.2,0.2-0.3c0-0.2-0.2-0.5-0.6-1.1l-2-2.8
		c-0.1-0.1-0.2-0.2-0.3-0.3c-0.1-0.1-0.2-0.1-0.3-0.1c-0.2,0-0.3,0.1-0.3,0.3V18c0,0.3,0,0.6,0.1,0.8c0.1,0.2,0.2,0.4,0.3,0.5
		c0.1,0.1,0.2,0.1,0.4,0.1c0.1,0,0.2,0,0.4,0c0.1,0,0.2,0.1,0.3,0.1s0.1,0.2,0.1,0.3c0,0.3-0.1,0.4-0.3,0.4c-0.1,0-0.5,0-0.9-0.1
		c-0.5-0.1-1.1-0.1-2-0.1c-0.9,0-1.6,0-2.1,0.1c-0.5,0.1-0.8,0.1-0.9,0.1c-0.1,0-0.2,0-0.3-0.1c-0.1-0.1-0.1-0.2-0.1-0.3
		c0-0.2,0-0.3,0.1-0.3s0.2-0.1,0.3-0.1c0.1,0,0.2,0,0.4,0c0.1,0,0.3,0,0.4-0.1c0.3-0.1,0.4-0.3,0.5-0.5c0.1-0.2,0.1-0.5,0.1-0.9V6.7
		c0-0.4-0.1-0.8-0.2-0.9c-0.2-0.2-0.3-0.3-0.5-0.4s-0.4-0.1-0.5-0.2c-0.2,0-0.2-0.2-0.2-0.4c0-0.3,0.1-0.4,0.4-0.5
		c0.2-0.1,0.6-0.2,1.1-0.2c0.5-0.1,0.9-0.2,1.3-0.3c0.4-0.1,0.7-0.2,0.9-0.3c0.2-0.1,0.4-0.2,0.6-0.3c0.1-0.1,0.3-0.1,0.4-0.1
		c0.3,0,0.4,0.2,0.4,0.6c0,0.2,0,0.4,0,0.6c0,0.2,0,0.5,0,0.8V13.6z"/>
	<path class="st1" d="M537.6,18c0,0.4,0,0.6,0.1,0.8s0.2,0.3,0.4,0.4c0.1,0.1,0.3,0.1,0.5,0.1c0.2,0,0.3,0,0.4,0s0.2,0.1,0.3,0.1
		c0.1,0.1,0.1,0.2,0.1,0.3c0,0.3-0.2,0.5-0.5,0.5c-0.2,0-0.5,0-0.9-0.1c-0.4-0.1-1-0.1-1.6-0.1c-1.1,0-1.9,0-2.5,0.1
		c-0.6,0.1-0.9,0.1-1,0.1c-0.3,0-0.4-0.1-0.4-0.4c0-0.1,0-0.3,0.1-0.3s0.2-0.1,0.3-0.1c0.1,0,0.2,0,0.4,0c0.1,0,0.3,0,0.4-0.1
		c0.3-0.1,0.4-0.3,0.5-0.5s0.1-0.5,0.1-0.9v-4.8c0-0.3,0-0.6,0-0.8c0-0.2-0.1-0.3-0.3-0.4c-0.1-0.1-0.2-0.1-0.4-0.1
		c-0.1,0-0.3,0-0.4,0c-0.1,0-0.2-0.1-0.3-0.1s-0.1-0.2-0.1-0.3c0-0.1,0-0.3,0.1-0.3c0.1-0.1,0.2-0.1,0.4-0.2c0.2,0,0.4-0.1,0.6-0.1
		c0.2-0.1,0.5-0.1,0.8-0.3c0.5-0.2,0.8-0.4,1.2-0.6s0.6-0.4,0.8-0.5c0.2-0.2,0.4-0.3,0.5-0.4c0.1-0.1,0.2-0.1,0.3-0.1
		c0.2,0,0.3,0.2,0.3,0.7V18z M537.4,4.7c0.4,0.4,0.6,0.8,0.6,1.4c0,0.5-0.2,1-0.6,1.4c-0.4,0.4-0.8,0.5-1.4,0.5
		c-0.5,0-1-0.2-1.4-0.5C534.2,7,534,6.6,534,6c0-0.6,0.2-1,0.6-1.4s0.8-0.5,1.4-0.5C536.5,4.1,537,4.3,537.4,4.7z"/>
	<path class="st1" d="M546.2,10.1c0,0.2,0,0.3,0.1,0.3c0.1,0,0.1,0,0.2-0.1l0.2-0.2c0.4-0.4,0.9-0.7,1.4-0.9
		c0.6-0.2,1.1-0.4,1.7-0.4c1.2,0,2.1,0.3,2.7,0.9c0.6,0.6,0.9,1.5,0.9,2.6V18c0,0.4,0,0.6,0.1,0.8s0.2,0.3,0.4,0.4
		c0.1,0.1,0.3,0.1,0.4,0.1c0.1,0,0.3,0,0.4,0s0.2,0.1,0.3,0.1c0.1,0.1,0.1,0.2,0.1,0.3c0,0.1,0,0.2-0.1,0.3
		c-0.1,0.1-0.2,0.1-0.2,0.1c-0.1,0-0.4,0-0.9-0.1c-0.5-0.1-1.2-0.1-2.1-0.1c-0.8,0-1.5,0-1.9,0.1c-0.5,0.1-0.8,0.1-0.9,0.1
		c-0.3,0-0.4-0.1-0.4-0.4c0-0.2,0-0.3,0.1-0.3c0.1-0.1,0.1-0.1,0.2-0.1s0.2,0,0.3,0c0.1,0,0.2,0,0.4-0.1c0.2-0.1,0.4-0.2,0.4-0.4
		s0.1-0.5,0.1-0.9v-4.9c0-1.9-0.5-2.8-1.6-2.8c-0.8,0-1.2,0.3-1.5,0.8c-0.2,0.5-0.3,1.3-0.3,2.2V18c0,0.3,0,0.6,0.1,0.8
		c0,0.2,0.1,0.4,0.3,0.5c0.1,0.1,0.2,0.1,0.3,0.1c0.1,0,0.2,0,0.3,0.1s0.2,0.1,0.2,0.1s0.1,0.2,0.1,0.3c0,0.3-0.1,0.4-0.4,0.4
		c-0.1,0-0.4,0-0.8-0.1c-0.4,0-1-0.1-1.8-0.1c-0.9,0-1.6,0-2.1,0.1c-0.5,0.1-0.8,0.1-0.9,0.1c-0.1,0-0.2,0-0.3-0.1
		c-0.1-0.1-0.1-0.2-0.1-0.3c0-0.2,0-0.3,0.1-0.3s0.2-0.1,0.3-0.1c0.1,0,0.2,0,0.4,0s0.3,0,0.4-0.1c0.3-0.1,0.4-0.3,0.5-0.5
		c0.1-0.2,0.1-0.5,0.1-0.9v-5.1c0-0.3,0-0.6,0-0.8c0-0.2-0.1-0.3-0.3-0.4c-0.1-0.1-0.3-0.1-0.4-0.1c-0.1,0-0.3,0-0.4-0.1
		c-0.1,0-0.2-0.1-0.3-0.1c-0.1-0.1-0.1-0.1-0.1-0.3c0-0.2,0-0.3,0.1-0.3s0.2-0.1,0.4-0.2c0.2,0,0.4-0.1,0.6-0.1
		c0.2-0.1,0.5-0.1,0.8-0.3c0.4-0.2,0.7-0.3,1-0.5c0.3-0.2,0.5-0.4,0.6-0.5c0.2-0.2,0.3-0.3,0.4-0.4c0.1-0.1,0.2-0.2,0.3-0.2
		c0.1,0,0.2,0.1,0.2,0.2s0,0.3,0,0.4V10.1z"/>
	<path class="st1" d="M568.3,9.7c0,0,0.1,0,0.1,0c0,0,0.1,0,0.2,0c0.3,0,0.5,0.1,0.6,0.2c0.1,0.1,0.2,0.5,0.2,1
		c0,0.1-0.1,0.2-0.4,0.2c-0.1,0-0.2,0-0.3,0c-0.1,0-0.1,0-0.2,0c-0.2,0-0.5,0-0.9,0.1c0.3,0.6,0.5,1.3,0.5,1.9
		c0,1.2-0.5,2.1-1.4,2.9c-0.9,0.7-2.2,1.1-3.8,1.1c-0.1,0-0.2,0-0.3,0c-0.1,0-0.2,0-0.3,0c-0.3,0-0.4,0.1-0.6,0.2
		c-0.1,0.1-0.2,0.2-0.2,0.4c0,0.2,0.2,0.4,0.5,0.5c0.4,0.1,0.9,0.1,1.6,0.2c0.9,0,1.6,0.1,2.3,0.2c0.7,0.1,1.2,0.3,1.7,0.5
		s0.8,0.6,1,1c0.2,0.4,0.4,0.9,0.4,1.5c0,0.6-0.2,1.1-0.5,1.7c-0.3,0.5-0.8,1-1.3,1.4c-0.6,0.4-1.3,0.8-2.1,1
		c-0.8,0.2-1.7,0.4-2.6,0.4c-0.8,0-1.5-0.1-2.1-0.2c-0.6-0.2-1.2-0.4-1.6-0.7s-0.8-0.6-1-0.9c-0.2-0.4-0.4-0.7-0.4-1.1
		s0.1-0.7,0.3-0.9s0.5-0.5,0.9-0.7l1-0.6c0.2-0.1,0.3-0.2,0.3-0.3c0-0.1,0-0.2-0.1-0.2l-0.4-0.4c-0.8-0.8-1.2-1.3-1.2-1.6
		c0-0.2,0.1-0.3,0.3-0.4s0.4-0.2,0.7-0.3l1.1-0.5c0.2-0.1,0.3-0.1,0.3-0.2c0,0-0.1-0.1-0.2-0.2l-0.4-0.3c-0.6-0.4-1.1-0.9-1.4-1.3
		s-0.5-1.1-0.5-1.9c0-0.6,0.1-1.1,0.4-1.6c0.2-0.5,0.6-0.9,1-1.3c0.4-0.4,0.9-0.7,1.5-0.9c0.6-0.2,1.2-0.3,2-0.3
		c0.7,0,1.3,0.1,1.8,0.2s0.9,0.3,1.4,0.5c0.1,0.1,0.3,0.1,0.4,0.2s0.3,0.1,0.6,0.1c0.1,0,0.1,0,0.2,0c0,0,0.1,0,0.2,0L568.3,9.7z
		 M566.2,22c-0.2-0.2-0.4-0.3-0.8-0.4s-0.7-0.1-1.2-0.1c-0.4,0-0.9,0-1.5,0c-0.3,0-0.6,0-0.8-0.1c-0.2-0.1-0.4-0.2-0.6-0.2
		c-0.2-0.1-0.3-0.2-0.4-0.2c-0.1-0.1-0.2-0.1-0.2-0.1c-0.1,0-0.3,0.2-0.5,0.5c-0.2,0.3-0.3,0.7-0.3,1.1c0,0.8,0.3,1.4,0.9,1.9
		s1.4,0.7,2.4,0.7c1,0,1.8-0.2,2.3-0.7c0.6-0.4,0.9-0.9,0.9-1.5C566.5,22.5,566.4,22.2,566.2,22z M561.8,10.5
		c-0.4,0.6-0.5,1.3-0.5,2.3s0.2,1.8,0.5,2.4c0.4,0.6,0.8,0.9,1.4,0.9c0.5,0,1-0.3,1.3-0.8c0.4-0.6,0.5-1.3,0.5-2.4
		c0-1-0.2-1.8-0.5-2.4c-0.4-0.5-0.8-0.8-1.3-0.8C562.6,9.6,562.2,9.9,561.8,10.5z"/>
	<path class="st1" d="M591.6,18.2c0,0.4,0.1,0.7,0.3,0.7c0.1,0,0.2,0,0.2-0.1c0.1-0.1,0.2-0.1,0.2-0.2c0.1-0.1,0.2-0.1,0.2-0.2
		s0.2-0.1,0.3-0.1c0.2,0,0.3,0.2,0.3,0.5c0,0.2,0,0.4,0,0.6c0,0.1-0.1,0.2-0.2,0.3c-0.1,0.1-0.2,0.1-0.3,0.1s-0.3,0.1-0.5,0.1
		c-1,0.2-1.8,0.4-2.3,0.6c-0.5,0.2-0.8,0.3-1,0.3c-0.2,0-0.3-0.1-0.4-0.2c-0.1-0.1-0.1-0.3-0.2-0.5l-0.1-0.8h-0.1
		c-0.6,0.4-1.1,0.7-1.6,1s-1,0.4-1.7,0.4c-0.7,0-1.3-0.1-1.9-0.4s-1-0.7-1.4-1.2c-0.4-0.5-0.7-1.1-0.9-1.8c-0.2-0.7-0.3-1.5-0.3-2.4
		c0-0.9,0.1-1.8,0.4-2.5c0.3-0.8,0.6-1.4,1.1-1.9c0.5-0.5,1-0.9,1.6-1.2c0.6-0.3,1.3-0.4,2.1-0.4c0.5,0,0.8,0,1.1,0.1
		c0.3,0.1,0.5,0.2,0.7,0.3l0.4,0.1c0,0,0.1,0,0.2,0c0.1,0,0.2-0.1,0.2-0.4V7.3c0-0.4,0-0.8,0-1c0-0.3-0.1-0.5-0.3-0.6
		c-0.1-0.1-0.2-0.2-0.4-0.2c-0.1,0-0.3-0.1-0.4-0.1c-0.1,0-0.2-0.1-0.3-0.1c-0.1-0.1-0.1-0.2-0.1-0.3c0-0.3,0.1-0.4,0.4-0.5
		s0.6-0.2,1.1-0.2c1-0.2,1.7-0.4,2.2-0.7c0.5-0.3,0.8-0.4,1-0.4c0.3,0,0.4,0.2,0.4,0.6c0,0.2,0,0.5,0,0.7s0,0.5,0,0.7V18.2z
		 M587.8,10.4c-0.2-0.3-0.6-0.5-1.2-0.5c-0.8,0-1.4,0.4-1.9,1.2s-0.8,1.9-0.8,3.5c0,1.5,0.3,2.6,0.8,3.4c0.5,0.8,1.2,1.2,1.9,1.2
		c0.7,0,1.1-0.2,1.3-0.7c0.2-0.5,0.3-1.1,0.3-2v-4.5C588.2,11.2,588.1,10.7,587.8,10.4z"/>
	<path class="st1" d="M600.7,18c0,0.4,0,0.6,0.1,0.8s0.2,0.3,0.4,0.4c0.1,0.1,0.3,0.1,0.5,0.1c0.2,0,0.3,0,0.4,0s0.2,0.1,0.3,0.1
		c0.1,0.1,0.1,0.2,0.1,0.3c0,0.3-0.2,0.5-0.5,0.5c-0.2,0-0.5,0-0.9-0.1c-0.4-0.1-1-0.1-1.6-0.1c-1.1,0-1.9,0-2.5,0.1
		c-0.6,0.1-0.9,0.1-1,0.1c-0.3,0-0.4-0.1-0.4-0.4c0-0.1,0-0.3,0.1-0.3s0.2-0.1,0.3-0.1c0.1,0,0.2,0,0.4,0c0.1,0,0.3,0,0.4-0.1
		c0.3-0.1,0.4-0.3,0.5-0.5s0.1-0.5,0.1-0.9v-4.8c0-0.3,0-0.6,0-0.8c0-0.2-0.1-0.3-0.3-0.4c-0.1-0.1-0.2-0.1-0.4-0.1
		c-0.1,0-0.3,0-0.4,0c-0.1,0-0.2-0.1-0.3-0.1s-0.1-0.2-0.1-0.3c0-0.1,0-0.3,0.1-0.3c0.1-0.1,0.2-0.1,0.4-0.2c0.2,0,0.4-0.1,0.6-0.1
		c0.2-0.1,0.5-0.1,0.8-0.3c0.5-0.2,0.8-0.4,1.2-0.6s0.6-0.4,0.8-0.5c0.2-0.2,0.4-0.3,0.5-0.4c0.1-0.1,0.2-0.1,0.3-0.1
		c0.2,0,0.3,0.2,0.3,0.7V18z M600.5,4.7C600.9,5,601,5.5,601,6c0,0.5-0.2,1-0.6,1.4c-0.4,0.4-0.8,0.5-1.4,0.5c-0.5,0-1-0.2-1.4-0.5
		c-0.4-0.4-0.6-0.8-0.6-1.4c0-0.6,0.2-1,0.6-1.4s0.8-0.5,1.4-0.5C599.6,4.1,600.1,4.3,600.5,4.7z"/>
	<path class="st1" d="M609.8,9c0,0.2,0.1,0.4,0.3,0.4h2c0.1,0,0.2,0,0.2,0.1c0,0,0,0.1,0,0.3v0.5c0,0.2-0.1,0.3-0.2,0.3h-2
		c-0.2,0-0.3,0.1-0.3,0.3V18c0,0.4,0,0.6,0.1,0.8s0.2,0.3,0.4,0.4c0.2,0.1,0.3,0.1,0.5,0.1s0.3,0,0.5,0c0.1,0,0.3,0.1,0.4,0.1
		s0.2,0.2,0.2,0.4c0,0.3-0.2,0.5-0.5,0.5c-0.1,0-0.5,0-1-0.1s-1.3-0.1-2.3-0.1c-0.9,0-1.5,0-2,0.1c-0.5,0.1-0.8,0.1-1,0.1
		c-0.1,0-0.2,0-0.3-0.1c-0.1-0.1-0.1-0.2-0.1-0.3c0-0.2,0-0.3,0.1-0.3s0.2-0.1,0.3-0.1c0.1,0,0.2,0,0.4,0c0.1,0,0.3,0,0.4-0.1
		c0.3-0.1,0.4-0.3,0.5-0.5c0.1-0.2,0.1-0.5,0.1-0.9v-7.3c0-0.2-0.1-0.3-0.3-0.3h-0.8c-0.1,0-0.3,0-0.4-0.1c-0.1-0.1-0.1-0.2-0.1-0.3
		c0-0.1,0.1-0.3,0.2-0.3c0.1-0.1,0.3-0.2,0.5-0.2l0.6-0.3c0.1-0.1,0.2-0.1,0.3-0.1s0.1-0.1,0.1-0.3l0.1-1c0.1-0.7,0.3-1.4,0.5-2
		c0.3-0.6,0.7-1.1,1.1-1.4s0.9-0.7,1.5-0.9c0.6-0.2,1.2-0.3,1.9-0.3c0.8,0,1.5,0.1,1.9,0.4s0.7,0.5,0.7,0.8c0,0.3-0.1,0.5-0.2,0.9
		c-0.1,0.3-0.2,0.6-0.4,0.8c-0.2,0.3-0.3,0.5-0.5,0.6c-0.2,0.2-0.3,0.2-0.4,0.2c-0.2,0-0.4-0.1-0.5-0.4s-0.3-0.7-0.5-1.1
		c-0.1-0.3-0.3-0.6-0.5-0.8c-0.2-0.2-0.3-0.2-0.4-0.2c-0.7,0-1.1,1.3-1.1,3.8V9z"/>
	<path class="st1" d="M619.4,9c0,0.2,0.1,0.4,0.3,0.4h2c0.1,0,0.2,0,0.2,0.1c0,0,0,0.1,0,0.3v0.5c0,0.2-0.1,0.3-0.2,0.3h-2
		c-0.2,0-0.3,0.1-0.3,0.3V18c0,0.4,0,0.6,0.1,0.8s0.2,0.3,0.4,0.4c0.2,0.1,0.3,0.1,0.5,0.1s0.3,0,0.5,0c0.1,0,0.3,0.1,0.4,0.1
		s0.2,0.2,0.2,0.4c0,0.3-0.2,0.5-0.5,0.5c-0.1,0-0.5,0-1-0.1s-1.3-0.1-2.3-0.1c-0.9,0-1.5,0-2,0.1c-0.5,0.1-0.8,0.1-1,0.1
		c-0.1,0-0.2,0-0.3-0.1c-0.1-0.1-0.1-0.2-0.1-0.3c0-0.2,0-0.3,0.1-0.3s0.2-0.1,0.3-0.1c0.1,0,0.2,0,0.4,0c0.1,0,0.3,0,0.4-0.1
		c0.3-0.1,0.4-0.3,0.5-0.5c0.1-0.2,0.1-0.5,0.1-0.9v-7.3c0-0.2-0.1-0.3-0.3-0.3h-0.8c-0.1,0-0.3,0-0.4-0.1c-0.1-0.1-0.1-0.2-0.1-0.3
		c0-0.1,0.1-0.3,0.2-0.3c0.1-0.1,0.3-0.2,0.5-0.2l0.6-0.3c0.1-0.1,0.2-0.1,0.3-0.1s0.1-0.1,0.1-0.3l0.1-1c0.1-0.7,0.3-1.4,0.5-2
		c0.3-0.6,0.7-1.1,1.1-1.4s0.9-0.7,1.5-0.9c0.6-0.2,1.2-0.3,1.9-0.3c0.8,0,1.5,0.1,1.9,0.4s0.7,0.5,0.7,0.8c0,0.3-0.1,0.5-0.2,0.9
		c-0.1,0.3-0.2,0.6-0.4,0.8c-0.2,0.3-0.3,0.5-0.5,0.6c-0.2,0.2-0.3,0.2-0.4,0.2c-0.2,0-0.4-0.1-0.5-0.4s-0.3-0.7-0.5-1.1
		c-0.1-0.3-0.3-0.6-0.5-0.8c-0.2-0.2-0.3-0.2-0.4-0.2c-0.7,0-1.1,1.3-1.1,3.8V9z"/>
	<path class="st1" d="M628.3,13.6c-0.3,0-0.4,0.1-0.4,0.4v0.6c0,0.7,0.1,1.3,0.3,1.8c0.2,0.5,0.4,1,0.8,1.4c0.3,0.4,0.7,0.7,1.2,0.9
		c0.5,0.2,1,0.3,1.5,0.3c0.4,0,0.8-0.1,1.1-0.2c0.3-0.1,0.6-0.3,0.8-0.4c0.2-0.2,0.4-0.3,0.5-0.4c0.1-0.1,0.3-0.2,0.4-0.2
		c0.1,0,0.2,0,0.3,0.1c0.1,0.1,0.1,0.2,0.1,0.3c0,0.1-0.1,0.4-0.4,0.7c-0.2,0.3-0.6,0.6-1,0.9c-0.4,0.3-0.9,0.5-1.5,0.8
		s-1.2,0.3-2,0.3c-0.8,0-1.6-0.1-2.3-0.4s-1.3-0.7-1.8-1.2c-0.5-0.5-0.9-1.2-1.2-1.9c-0.3-0.7-0.4-1.6-0.4-2.4
		c0-0.9,0.1-1.7,0.4-2.5c0.3-0.7,0.7-1.4,1.2-1.9c0.5-0.5,1.1-0.9,1.9-1.2c0.7-0.3,1.5-0.4,2.4-0.4c0.7,0,1.4,0.1,1.9,0.3
		c0.6,0.2,1.1,0.5,1.5,0.9c0.4,0.4,0.7,0.8,0.9,1.3c0.2,0.5,0.3,1,0.3,1.5c0,0.3-0.1,0.5-0.2,0.6c-0.2,0.1-0.4,0.2-0.8,0.2H628.3z
		 M631.4,12.3c0.3-0.2,0.5-0.5,0.5-1c0-0.5-0.2-0.9-0.5-1.2c-0.3-0.3-0.7-0.4-1.1-0.4c-0.5,0-1,0.2-1.4,0.6
		c-0.4,0.4-0.7,0.9-0.8,1.6l-0.1,0.4v0c0,0.1,0.1,0.2,0.3,0.2h1.4C630.5,12.6,631,12.5,631.4,12.3z"/>
	<path class="st1" d="M642.7,10.2c0,0.2,0,0.2,0.1,0.2c0.1,0,0.1,0,0.2-0.1l0.2-0.3c0.6-0.7,1.3-1.1,2-1.1c0.6,0,1.1,0.2,1.4,0.5
		c0.4,0.3,0.5,0.8,0.5,1.4c0,0.6-0.2,1.1-0.5,1.5c-0.3,0.3-0.7,0.5-1.2,0.5c-0.3,0-0.6-0.1-0.8-0.2c-0.2-0.2-0.4-0.3-0.5-0.5
		c-0.1-0.2-0.3-0.3-0.4-0.5s-0.2-0.2-0.4-0.2c-0.4,0-0.5,0.4-0.5,1.2V18c0,0.4,0,0.6,0.1,0.8s0.2,0.3,0.4,0.5
		c0.1,0.1,0.3,0.1,0.4,0.1c0.1,0,0.3,0,0.4,0s0.2,0.1,0.3,0.1c0.1,0.1,0.1,0.2,0.1,0.4c0,0.3-0.1,0.4-0.3,0.4c-0.1,0-0.5,0-1-0.1
		c-0.5-0.1-1.2-0.1-2.1-0.1s-1.6,0-2.1,0.1c-0.5,0.1-0.8,0.1-0.9,0.1c-0.1,0-0.2,0-0.3-0.1c-0.1-0.1-0.1-0.2-0.1-0.3
		c0-0.2,0-0.3,0.1-0.3s0.2-0.1,0.3-0.1c0.1,0,0.2,0,0.4,0s0.3,0,0.4-0.1c0.3-0.1,0.4-0.3,0.5-0.5c0.1-0.2,0.1-0.5,0.1-0.9v-5
		c0-0.1,0-0.2,0-0.2c0-0.1,0-0.2,0-0.3c0-0.2,0-0.4-0.1-0.6c-0.1-0.1-0.2-0.2-0.4-0.3c-0.3-0.1-0.5-0.1-0.7-0.1
		c-0.2,0-0.3-0.1-0.3-0.4c0-0.1,0-0.3,0.1-0.3s0.2-0.1,0.4-0.2s0.4-0.1,0.6-0.2c0.2-0.1,0.5-0.1,0.8-0.3c0.4-0.2,0.7-0.3,1-0.5
		c0.3-0.2,0.5-0.4,0.7-0.5c0.2-0.2,0.4-0.3,0.5-0.4c0.1-0.1,0.3-0.2,0.4-0.2c0.2,0,0.3,0.1,0.4,0.2c0,0.1,0.1,0.3,0.1,0.4V10.2z"/>
	<path class="st1" d="M653.2,13.6c-0.3,0-0.4,0.1-0.4,0.4v0.6c0,0.7,0.1,1.3,0.3,1.8c0.2,0.5,0.4,1,0.8,1.4c0.3,0.4,0.7,0.7,1.2,0.9
		c0.5,0.2,1,0.3,1.5,0.3c0.4,0,0.8-0.1,1.1-0.2c0.3-0.1,0.6-0.3,0.8-0.4c0.2-0.2,0.4-0.3,0.5-0.4c0.1-0.1,0.3-0.2,0.4-0.2
		c0.1,0,0.2,0,0.3,0.1c0.1,0.1,0.1,0.2,0.1,0.3c0,0.1-0.1,0.4-0.4,0.7c-0.2,0.3-0.6,0.6-1,0.9c-0.4,0.3-0.9,0.5-1.5,0.8
		s-1.2,0.3-2,0.3c-0.8,0-1.6-0.1-2.3-0.4s-1.3-0.7-1.8-1.2c-0.5-0.5-0.9-1.2-1.2-1.9c-0.3-0.7-0.4-1.6-0.4-2.4
		c0-0.9,0.1-1.7,0.4-2.5c0.3-0.7,0.7-1.4,1.2-1.9c0.5-0.5,1.1-0.9,1.9-1.2c0.7-0.3,1.5-0.4,2.4-0.4c0.7,0,1.4,0.1,1.9,0.3
		c0.6,0.2,1.1,0.5,1.5,0.9c0.4,0.4,0.7,0.8,0.9,1.3c0.2,0.5,0.3,1,0.3,1.5c0,0.3-0.1,0.5-0.2,0.6c-0.2,0.1-0.4,0.2-0.8,0.2H653.2z
		 M656.2,12.3c0.3-0.2,0.5-0.5,0.5-1c0-0.5-0.2-0.9-0.5-1.2c-0.3-0.3-0.7-0.4-1.1-0.4c-0.5,0-1,0.2-1.4,0.6
		c-0.4,0.4-0.7,0.9-0.8,1.6l-0.1,0.4v0c0,0.1,0.1,0.2,0.3,0.2h1.4C655.4,12.6,655.9,12.5,656.2,12.3z"/>
	<path class="st1" d="M667.3,10.1c0,0.2,0,0.3,0.1,0.3c0.1,0,0.1,0,0.2-0.1l0.2-0.2c0.4-0.4,0.9-0.7,1.4-0.9
		c0.6-0.2,1.1-0.4,1.7-0.4c1.2,0,2.1,0.3,2.7,0.9c0.6,0.6,0.9,1.5,0.9,2.6V18c0,0.4,0,0.6,0.1,0.8s0.2,0.3,0.4,0.4
		c0.1,0.1,0.3,0.1,0.4,0.1c0.1,0,0.3,0,0.4,0s0.2,0.1,0.3,0.1c0.1,0.1,0.1,0.2,0.1,0.3c0,0.1,0,0.2-0.1,0.3
		c-0.1,0.1-0.2,0.1-0.2,0.1c-0.1,0-0.4,0-0.9-0.1c-0.5-0.1-1.2-0.1-2.1-0.1c-0.8,0-1.5,0-1.9,0.1c-0.5,0.1-0.8,0.1-0.9,0.1
		c-0.3,0-0.4-0.1-0.4-0.4c0-0.2,0-0.3,0.1-0.3c0.1-0.1,0.1-0.1,0.2-0.1s0.2,0,0.3,0c0.1,0,0.2,0,0.4-0.1c0.2-0.1,0.4-0.2,0.4-0.4
		s0.1-0.5,0.1-0.9v-4.9c0-1.9-0.5-2.8-1.6-2.8c-0.8,0-1.2,0.3-1.5,0.8c-0.2,0.5-0.3,1.3-0.3,2.2V18c0,0.3,0,0.6,0.1,0.8
		c0,0.2,0.1,0.4,0.3,0.5c0.1,0.1,0.2,0.1,0.3,0.1c0.1,0,0.2,0,0.3,0.1s0.2,0.1,0.2,0.1s0.1,0.2,0.1,0.3c0,0.3-0.1,0.4-0.4,0.4
		c-0.1,0-0.4,0-0.8-0.1c-0.4,0-1-0.1-1.8-0.1c-0.9,0-1.6,0-2.1,0.1c-0.5,0.1-0.8,0.1-0.9,0.1c-0.1,0-0.2,0-0.3-0.1
		c-0.1-0.1-0.1-0.2-0.1-0.3c0-0.2,0-0.3,0.1-0.3s0.2-0.1,0.3-0.1c0.1,0,0.2,0,0.4,0s0.3,0,0.4-0.1c0.3-0.1,0.4-0.3,0.5-0.5
		c0.1-0.2,0.1-0.5,0.1-0.9v-5.1c0-0.3,0-0.6,0-0.8c0-0.2-0.1-0.3-0.3-0.4c-0.1-0.1-0.3-0.1-0.4-0.1c-0.1,0-0.3,0-0.4-0.1
		c-0.1,0-0.2-0.1-0.3-0.1c-0.1-0.1-0.1-0.1-0.1-0.3c0-0.2,0-0.3,0.1-0.3s0.2-0.1,0.4-0.2c0.2,0,0.4-0.1,0.6-0.1
		c0.2-0.1,0.5-0.1,0.8-0.3c0.4-0.2,0.7-0.3,1-0.5c0.3-0.2,0.5-0.4,0.6-0.5c0.2-0.2,0.3-0.3,0.4-0.4c0.1-0.1,0.2-0.2,0.3-0.2
		c0.1,0,0.2,0.1,0.2,0.2s0,0.3,0,0.4V10.1z"/>
	<path class="st1" d="M683.5,9c0,0.2,0.1,0.4,0.3,0.4h1.8c0.2,0,0.3,0,0.3,0.1c0,0.1,0.1,0.2,0.1,0.3v0.4c0,0.2,0,0.3-0.1,0.4
		c0,0.1-0.1,0.1-0.3,0.1h-1.8c-0.2,0-0.3,0.1-0.3,0.4l-0.1,5.1v0.5c0,0.9,0.1,1.5,0.2,1.9s0.3,0.6,0.6,0.6c0.1,0,0.3,0,0.4-0.1
		c0.1-0.1,0.3-0.1,0.4-0.2c0.1-0.1,0.2-0.2,0.3-0.2c0.1-0.1,0.2-0.1,0.3-0.1c0.1,0,0.2,0.1,0.3,0.2c0.1,0.1,0.2,0.2,0.2,0.3
		c0,0.2-0.1,0.4-0.3,0.6c-0.2,0.2-0.5,0.5-0.8,0.7c-0.3,0.2-0.7,0.4-1.1,0.5c-0.4,0.1-0.9,0.2-1.3,0.2c-0.9,0-1.6-0.3-2-0.8
		s-0.5-1.4-0.5-2.5v-0.9l0.1-5.4c0-0.2,0-0.4-0.1-0.6c0-0.1-0.1-0.2-0.3-0.2h-0.5c-0.4,0-0.6-0.1-0.6-0.4c0-0.2,0.1-0.3,0.2-0.4
		c0.1-0.1,0.3-0.2,0.5-0.4s0.5-0.3,0.8-0.5c0.3-0.2,0.6-0.4,0.9-0.7c0.3-0.2,0.5-0.5,0.7-0.7c0.2-0.2,0.4-0.4,0.5-0.6
		c0.2-0.2,0.3-0.3,0.4-0.5c0.1-0.1,0.3-0.2,0.4-0.2c0.2,0,0.3,0.1,0.4,0.2s0.1,0.3,0.1,0.5V9z"/>
</g>
<g class="st3">
	<path class="st1" d="M690.4,17.6c0.3,0.3,0.5,0.8,0.5,1.3s-0.2,0.9-0.5,1.2c-0.3,0.3-0.8,0.5-1.2,0.5c-0.5,0-0.9-0.2-1.3-0.5
		c-0.3-0.3-0.5-0.7-0.5-1.3s0.2-0.9,0.5-1.3s0.8-0.5,1.3-0.5C689.6,17.1,690,17.3,690.4,17.6z"/>
</g>
</svg>
